<?xml version="1.0" encoding="UTF-8" standalone="no"?>
<!DOCTYPE svg PUBLIC "-//W3C//DTD SVG 1.1//EN" "http://www.w3.org/Graphics/SVG/1.1/DTD/svg11.dtd">
<svg version="1.1" xmlns="http://www.w3.org/2000/svg" xmlns:xlink="http://www.w3.org/1999/xlink" preserveAspectRatio="xMidYMid meet" viewBox="0 0 640 640" width="640" height="640"><defs><path d="M181.74 50C108.99 50 50 105.97 50 175C50 244.04 108.99 300 181.74 300C254.5 300 313.48 244.04 313.48 175C313.48 105.97 254.5 50 181.74 50Z" id="e7mrhAaeGP"></path><path d="M181.01 192.69C181.01 192.69 181.01 192.69 181.01 192.69C181.01 217.69 181.01 231.58 181.01 234.35C181.01 234.35 181.01 234.35 181.01 234.35C168.27 234.35 161.2 234.35 159.79 234.35C159.79 234.35 159.79 234.35 159.79 234.35C159.79 209.35 159.79 195.47 159.79 192.69C159.79 192.69 159.79 192.69 159.79 192.69C172.52 192.69 179.59 192.69 181.01 192.69Z" id="egAFYGxX6"></path><path d="M203.7 192.69C203.7 192.69 203.7 192.69 203.7 192.69C203.7 217.69 203.7 231.58 203.7 234.35C203.7 234.35 203.7 234.35 203.7 234.35C190.09 234.35 182.52 234.35 181.01 234.35C181.01 234.35 181.01 234.35 181.01 234.35C181.01 209.35 181.01 195.47 181.01 192.69C181.01 192.69 181.01 192.69 181.01 192.69C194.63 192.69 202.19 192.69 203.7 192.69Z" id="eziTgyZYj"></path><path d="M259.31 147.67L261.16 146.23L209.41 97.14L209.41 127.86L225.98 144.99L203.49 166.33L97.78 156.35L155.89 211.49L148.64 218.37C195.52 262.85 221.57 287.56 226.78 292.51C271.38 277.11 304.74 239.51 312 193.8C309.04 190.99 294.26 176.96 267.65 151.71L259.31 147.67Z" id="d384YUnLlJ"></path><path d="M203.7 192.69C203.7 192.69 203.7 192.69 203.7 192.69C203.7 217.69 203.7 231.58 203.7 234.35C203.7 234.35 203.7 234.35 203.7 234.35C177.35 234.35 162.71 234.35 159.79 234.35C159.79 234.35 159.79 234.35 159.79 234.35C159.79 209.35 159.79 195.47 159.79 192.69C159.79 192.69 159.79 192.69 159.79 192.69C186.14 192.69 200.77 192.69 203.7 192.69Z" id="c4UIGfHbWN"></path><path d="M129.38 226.03C117.53 228.28 109 238.15 109 249.61C109 252.53 109 275.89 109 278.82C129.81 292.03 154.83 299.74 181.74 299.74C208.66 299.74 233.68 292.03 254.49 278.82C254.49 275.89 254.49 252.53 254.49 249.61C254.49 238.15 245.96 228.28 234.11 226.03C232.56 225.73 224.8 224.26 210.84 221.61C208.37 218.19 207 216.29 206.73 215.92C205.96 214.85 204.5 214.45 203.25 214.96C202.78 215.15 198.99 216.7 198.51 216.89C187.81 221.27 175.68 221.26 164.99 216.86C164.53 216.67 160.83 215.15 160.37 214.96C159.12 214.45 157.67 214.84 156.89 215.89C156.61 216.27 155.19 218.18 152.65 221.61C138.68 224.26 130.93 225.73 129.38 226.03Z" id="ah7jZBUAK"></path><path d="M210.84 221.61C208.37 218.19 207 216.3 206.73 215.92C205.96 214.85 204.5 214.45 203.25 214.96C202.78 215.15 198.99 216.7 198.51 216.89C192.93 219.18 186.96 220.25 181.01 220.15C181.01 228.11 181.01 291.77 181.01 299.73C181.25 299.73 181.5 299.74 181.74 299.74C208.66 299.74 233.68 292.03 254.49 278.82C254.49 275.9 254.49 252.53 254.49 249.61C254.49 238.15 245.96 228.28 234.11 226.03C231.01 225.44 223.25 223.97 210.84 221.61Z" id="aRrzXbZZX"></path><path d="M227.7 154.72C227.7 129.2 207.13 108.51 181.74 108.51C156.36 108.51 135.79 129.2 135.79 154.72C135.79 156.65 135.91 158.63 136.13 160.63C131.68 161.73 129.56 168.24 131.4 175.2C133.25 182.19 138.38 186.98 142.87 185.92C143.28 185.82 143.66 185.66 144.03 185.48C152.33 201.29 166.13 214.13 181.74 214.13C197.36 214.13 211.16 201.29 219.46 185.48C219.83 185.66 220.21 185.82 220.62 185.92C225.11 186.98 230.24 182.19 232.09 175.2C233.93 168.24 231.81 161.73 227.35 160.63C227.58 158.63 227.7 156.65 227.7 154.72Z" id="ah0r9AOCf"></path><path d="M227.7 154.72C227.7 129.2 207.13 108.51 181.74 108.51C181.5 108.51 181.25 108.53 181.01 108.53C181.01 119.09 181.01 203.55 181.01 214.11C181.25 214.11 181.5 214.13 181.74 214.13C197.36 214.13 211.16 201.29 219.46 185.48C219.83 185.66 220.21 185.82 220.62 185.92C225.11 186.98 230.24 182.19 232.09 175.2C233.93 168.24 231.81 161.73 227.35 160.63C227.58 158.63 227.7 156.65 227.7 154.72Z" id="a4PLpgZvT"></path><path d="M219.12 223.17L181.74 289.97L144.27 223.19C131.12 224.78 123.81 225.66 122.35 225.84C108.91 228.1 99.24 238.03 99.24 249.56C99.24 251.85 99.24 270.16 99.24 272.45C121.82 289.68 150.51 300 181.74 300C212.98 300 241.67 289.68 264.25 272.45C264.25 270.16 264.25 251.85 264.25 249.57C264.25 238.03 254.58 228.1 241.14 225.84C238.2 225.48 230.86 224.59 219.12 223.17Z" id="cQNxV8VxA"></path><path d="M219.12 223.17L181.74 289.97L181.01 288.66C181.01 295.46 181.01 299.24 181.01 300C181.25 300 181.5 300 181.74 300C212.98 300 241.67 289.68 264.25 272.45C264.25 270.16 264.25 251.85 264.25 249.57C264.25 238.03 254.58 228.1 241.14 225.84C238.2 225.48 230.86 224.59 219.12 223.17Z" id="bmkIwKcfz"></path><path d="M143.46 176.39C143.46 176.39 151.41 150.51 148.4 141.14C145.4 131.76 153.41 131.12 153.41 131.12C163.48 134.26 173.09 135.31 181.45 135.32C181.45 132.3 181.45 108.1 181.45 105.07C134.27 105.29 129.3 157.44 136.15 160.63C143.01 163.83 142 173.24 143.46 176.39Z" id="bpxZGTjSm"></path><path d="M181.45 105.07C181.45 108.1 181.45 132.3 181.45 135.32C198.31 135.35 210.07 131.12 210.07 131.12C210.07 131.12 218.09 131.76 215.08 141.13C212.08 150.51 220.02 176.39 220.02 176.39C220.02 176.39 220.48 163.83 227.34 160.63C234.2 157.44 229.21 105.07 181.74 105.07C181.64 105.07 181.55 105.07 181.45 105.07Z" id="cGHFGLQwE"></path><path d="M178.21 299.96C179.39 299.99 180.56 300 181.74 300C186.1 300 190.41 299.8 194.66 299.4C196.78 296.33 207.38 280.96 226.47 253.29L216.64 237.85C228.08 232.8 234.44 230 235.71 229.44C235.71 229.44 220.59 207.09 203.7 205.45C198.61 224.35 189.31 246.76 178.21 299.96Z" id="ez03q433r"></path><path d="M127.78 229.44C129.05 230 135.41 232.8 146.85 237.85L137.02 253.29C156.1 280.96 166.71 296.33 168.83 299.4C173.08 299.8 177.38 300 181.74 300C182.93 300 184.1 299.99 185.28 299.96C174.18 246.76 159.78 205.45 159.78 205.45C142.89 207.09 134.18 224.64 127.78 229.44Z" id="gV6TjwNzO"></path><path d="M95.84 151.71C95.84 158.94 109.58 165.34 130.77 169.33C131.01 164.9 132.98 161.41 136.13 160.63C135.91 158.63 135.79 156.65 135.79 154.72C135.79 153.59 135.84 152.48 135.92 151.38C145.94 145.31 162.72 141.33 181.74 141.33C200.76 141.33 217.55 145.31 227.57 151.38C227.65 152.48 227.7 153.59 227.7 154.72C227.7 156.65 227.58 158.63 227.35 160.63C230.51 161.41 232.48 164.9 232.72 169.33C253.91 165.34 267.65 158.94 267.65 151.71C267.65 139.63 229.19 129.83 181.74 129.83C134.3 129.83 95.84 139.63 95.84 151.71Z" id="d2sfMMCEkH"></path><path d="M181.01 129.83C181.01 130.98 181.01 140.19 181.01 141.34C181.25 141.34 181.5 141.33 181.74 141.33C200.76 141.33 217.55 145.31 227.57 151.38C227.65 152.48 227.7 153.59 227.7 154.72C227.7 156.65 227.58 158.62 227.35 160.63C230.51 161.41 232.48 164.9 232.72 169.33C253.91 165.34 267.65 158.94 267.65 151.71C267.65 139.63 229.19 129.83 181.74 129.83C181.5 129.83 181.25 129.83 181.01 129.83Z" id="aHwWMotIb"></path><path d="M134.28 140.97C134.28 140.97 143.58 76.7 181.74 94.35C219.9 76.7 229.21 140.97 229.21 140.97" id="a3mrfQEfTw"></path><path d="M181.01 94.03C181.01 97.16 181.01 112.81 181.01 140.97C209.93 140.97 225.99 140.97 229.21 140.97C229.21 140.97 219.9 76.7 181.74 94.35C181.5 94.24 181.25 94.14 181.01 94.03Z" id="j1cTNcPSgc"></path><path d="M480.12 350C408.26 350 350 405.96 350 475C350 544.03 408.26 600 480.12 600C551.98 600 610.24 544.03 610.24 475C610.24 405.96 551.98 350 480.12 350Z" id="d3atlL0Fcb"></path><path d="M479.39 492.68C479.39 492.68 479.39 492.68 479.39 492.68C479.39 517.68 479.39 531.57 479.39 534.35C479.39 534.35 479.39 534.35 479.39 534.35C466.82 534.35 459.83 534.35 458.43 534.35C458.43 534.35 458.43 534.35 458.43 534.35C458.43 509.35 458.43 495.46 458.43 492.68C458.43 492.68 458.43 492.68 458.43 492.68C471.01 492.68 477.99 492.68 479.39 492.68Z" id="d3pCh9CEp1"></path><path d="M501.81 492.68C501.81 492.68 501.81 492.68 501.81 492.68C501.81 517.68 501.81 531.57 501.81 534.35C501.81 534.35 501.81 534.35 501.81 534.35C488.36 534.35 480.89 534.35 479.39 534.35C479.39 534.35 479.39 534.35 479.39 534.35C479.39 509.35 479.39 495.46 479.39 492.68C479.39 492.68 479.39 492.68 479.39 492.68C492.84 492.68 500.31 492.68 501.81 492.68Z" id="aru8ICOUH"></path><path d="M556.73 447.66L558.56 446.22L507.45 397.13L507.45 427.86L523.81 444.98L501.59 466.32L397.18 456.35L454.58 511.49L447.42 518.36C493.73 562.85 519.45 587.56 524.6 592.5C568.65 577.11 601.6 539.51 608.78 493.79C605.86 490.99 591.25 476.96 564.97 451.71L556.73 447.66Z" id="bfj47o8sB"></path><path d="M501.81 492.68C501.81 492.68 501.81 492.68 501.81 492.68C501.81 517.68 501.81 531.57 501.81 534.35C501.81 534.35 501.81 534.35 501.81 534.35C475.78 534.35 461.32 534.35 458.43 534.35C458.43 534.35 458.43 534.35 458.43 534.35C458.43 509.35 458.43 495.46 458.43 492.68C458.43 492.68 458.43 492.68 458.43 492.68C484.46 492.68 498.91 492.68 501.81 492.68Z" id="c1I1Qx04eW"></path><path d="M428.4 526.02C416.69 528.27 408.27 538.14 408.27 549.61C408.27 552.53 408.27 575.89 408.27 578.81C428.82 592.03 453.53 599.74 480.12 599.74C506.71 599.74 531.42 592.03 551.97 578.81C551.97 575.89 551.97 552.53 551.97 549.61C551.97 538.14 543.55 528.27 531.84 526.02C530.31 525.73 522.65 524.26 508.86 521.61C506.42 518.19 505.07 516.29 504.8 515.91C504.04 514.84 502.6 514.44 501.36 514.95C500.89 515.14 497.15 516.69 496.68 516.89C486.11 521.26 474.13 521.25 463.57 516.86C463.12 516.67 459.46 515.15 459 514.96C457.78 514.44 456.34 514.83 455.57 515.88C455.29 516.26 453.9 518.17 451.38 521.61C437.59 524.26 429.93 525.73 428.4 526.02Z" id="f2SqR6noKQ"></path><path d="M508.86 521.61C506.42 518.19 505.07 516.29 504.8 515.91C504.04 514.84 502.6 514.44 501.36 514.95C500.89 515.14 497.15 516.69 496.68 516.89C491.17 519.17 485.27 520.25 479.39 520.14C479.39 528.1 479.39 591.77 479.39 599.73C479.63 599.73 479.88 599.74 480.12 599.74C506.71 599.74 531.42 592.03 551.97 578.81C551.97 575.89 551.97 552.53 551.97 549.61C551.97 538.14 543.55 528.27 531.84 526.02C528.78 525.43 521.12 523.96 508.86 521.61Z" id="a9ClsBtzon"></path><path d="M525.51 454.71C525.51 429.19 505.19 408.51 480.12 408.51C455.05 408.51 434.73 429.19 434.73 454.71C434.73 456.64 434.85 458.62 435.07 460.63C430.67 461.73 428.57 468.23 430.39 475.2C432.22 482.18 437.29 486.98 441.72 485.91C442.13 485.81 442.5 485.66 442.87 485.47C451.07 501.29 464.69 514.12 480.12 514.12C495.55 514.12 509.17 501.29 517.37 485.47C517.74 485.66 518.12 485.81 518.52 485.91C522.95 486.98 528.02 482.18 529.85 475.2C531.67 468.23 529.57 461.72 525.17 460.63C525.39 458.62 525.51 456.64 525.51 454.71Z" id="aN3geqpyB"></path><path d="M525.51 454.71C525.51 429.19 505.19 408.51 480.12 408.51C479.88 408.51 479.63 408.52 479.39 408.52C479.39 419.08 479.39 503.54 479.39 514.1C479.63 514.11 479.88 514.12 480.12 514.12C495.55 514.12 509.17 501.29 517.37 485.47C517.74 485.66 518.12 485.81 518.52 485.91C522.95 486.98 528.02 482.18 529.85 475.2C531.67 468.23 529.57 461.72 525.17 460.63C525.39 458.62 525.51 456.64 525.51 454.71Z" id="g8RUT06qj"></path><path d="M517.04 523.16L480.12 589.97L443.11 523.19C430.12 524.77 422.9 525.65 421.46 525.83C408.18 528.09 398.63 538.02 398.63 549.56C398.63 551.85 398.63 570.15 398.63 572.44C420.93 589.68 449.27 600 480.12 600C510.97 600 539.31 589.68 561.61 572.44C561.61 570.15 561.61 551.85 561.61 549.56C561.61 538.03 552.06 528.09 538.78 525.83C535.88 525.48 528.64 524.58 517.04 523.16Z" id="a9ozMRmPj"></path><path d="M517.04 523.16L480.12 589.97L479.39 588.65C479.39 595.45 479.39 599.23 479.39 599.99C479.63 599.99 479.88 600 480.12 600C510.97 600 539.31 589.68 561.61 572.44C561.61 570.15 561.61 551.85 561.61 549.56C561.61 538.03 552.06 528.09 538.78 525.83C535.88 525.48 528.64 524.58 517.04 523.16Z" id="a4TCW5nfWd"></path><path d="M442.31 476.38C442.31 476.38 450.16 450.5 447.19 441.13C444.22 431.76 452.14 431.11 452.14 431.11C462.08 434.26 471.57 435.31 479.83 435.32C479.83 432.29 479.83 408.09 479.83 405.07C433.23 405.29 428.33 457.44 435.09 460.63C441.86 463.82 440.87 473.23 442.31 476.38Z" id="b3FyGXRubg"></path><path d="M479.83 405.07C479.83 408.09 479.83 432.29 479.83 435.32C496.48 435.34 508.1 431.11 508.1 431.11C508.1 431.11 516.02 431.76 513.05 441.13C510.08 450.5 517.93 476.38 517.93 476.38C517.93 476.38 518.37 463.82 525.15 460.63C531.93 457.43 527 405.06 480.12 405.06C480.02 405.06 479.93 405.07 479.83 405.07Z" id="eGtMaX42R"></path><path d="M476.63 599.95C477.79 599.98 478.95 600 480.12 600C484.43 600 488.68 599.79 492.88 599.4C494.97 596.32 505.45 580.95 524.3 553.28L514.59 537.85C525.89 532.8 532.17 529.99 533.42 529.43C533.42 529.43 518.49 507.09 501.81 505.44C496.77 524.34 487.59 546.76 476.63 599.95Z" id="byhGPzxNs"></path><path d="M426.82 529.43C428.07 529.99 434.35 532.8 445.65 537.85L435.94 553.28C454.79 580.95 465.27 596.32 467.36 599.4C471.56 599.79 475.81 600 480.12 600C481.29 600 482.45 599.98 483.61 599.95C472.65 546.76 458.43 505.44 458.43 505.44C441.75 507.09 433.14 524.63 426.82 529.43Z" id="asAfw2P2Z"></path><path d="M395.27 451.71C395.27 458.93 408.85 465.34 429.77 469.32C430.01 464.89 431.96 461.4 435.07 460.63C434.85 458.62 434.73 456.64 434.73 454.71C434.73 453.59 434.78 452.48 434.86 451.37C444.76 445.31 461.33 441.33 480.12 441.33C498.91 441.33 515.48 445.31 525.38 451.37C525.46 452.48 525.51 453.59 525.51 454.71C525.51 456.64 525.39 458.62 525.17 460.63C528.28 461.4 530.23 464.89 530.47 469.32C551.39 465.34 564.97 458.93 564.97 451.71C564.97 439.62 526.98 429.82 480.12 429.82C433.26 429.82 395.27 439.62 395.27 451.71Z" id="b2BbmXPaak"></path><path d="M479.39 429.83C479.39 430.98 479.39 440.19 479.39 441.34C479.63 441.33 479.87 441.33 480.12 441.33C498.91 441.33 515.48 445.31 525.38 451.37C525.46 452.48 525.51 453.59 525.51 454.71C525.51 456.64 525.39 458.62 525.17 460.63C528.28 461.4 530.23 464.89 530.47 469.32C551.39 465.34 564.97 458.93 564.97 451.71C564.97 439.62 526.98 429.82 480.12 429.82C479.88 429.82 479.63 429.82 479.39 429.83Z" id="b3CEiuu3v0"></path><path d="M433.24 440.96C433.24 440.96 442.43 376.7 480.12 394.35C517.81 376.7 527 440.96 527 440.96" id="a1xgouHmqq"></path><path d="M479.39 394.03C479.39 397.15 479.39 412.8 479.39 440.96C507.96 440.96 523.82 440.96 527 440.96C527 440.96 517.81 376.7 480.12 394.35C479.87 394.23 479.63 394.13 479.39 394.03Z" id="byen03p1q"></path><path d="M480.06 50C408.23 50 350 105.96 350 175C350 244.03 408.23 300 480.06 300C551.88 300 610.11 244.03 610.11 175C610.11 105.96 551.88 50 480.06 50Z" id="e45q437yg"></path><path d="M479.33 192.68C479.33 192.68 479.33 192.68 479.33 192.68C479.33 217.68 479.33 231.57 479.33 234.35C479.33 234.35 479.33 234.35 479.33 234.35C466.76 234.35 459.78 234.35 458.38 234.35C458.38 234.35 458.38 234.35 458.38 234.35C458.38 209.35 458.38 195.46 458.38 192.68C458.38 192.68 458.38 192.68 458.38 192.68C470.95 192.68 477.93 192.68 479.33 192.68Z" id="aSINCzIbY"></path><path d="M501.73 192.68C501.73 192.68 501.73 192.68 501.73 192.68C501.73 217.68 501.73 231.57 501.73 234.35C501.73 234.35 501.73 234.35 501.73 234.35C488.29 234.35 480.82 234.35 479.33 234.35C479.33 234.35 479.33 234.35 479.33 234.35C479.33 209.35 479.33 195.46 479.33 192.68C479.33 192.68 479.33 192.68 479.33 192.68C492.77 192.68 500.24 192.68 501.73 192.68Z" id="bnz7PLMA8"></path><path d="M556.63 147.66L558.45 146.23L507.37 97.13L507.37 127.86L523.72 144.98L501.52 166.33L397.16 156.35L454.53 211.49L447.38 218.36C493.66 262.85 519.37 287.56 524.51 292.5C568.54 277.11 601.47 239.51 608.65 193.79C605.73 190.99 591.13 176.96 564.86 151.71L556.63 147.66Z" id="fBjFq4H4u"></path><path d="M501.73 192.68C501.73 192.68 501.73 192.68 501.73 192.68C501.73 217.68 501.73 231.57 501.73 234.35C501.73 234.35 501.73 234.35 501.73 234.35C475.72 234.35 461.27 234.35 458.38 234.35C458.38 234.35 458.38 234.35 458.38 234.35C458.38 209.35 458.38 195.46 458.38 192.68C458.38 192.68 458.38 192.68 458.38 192.68C484.39 192.68 498.84 192.68 501.73 192.68Z" id="b1zztV7lhG"></path><path d="M428.36 226.02C416.66 228.27 408.24 238.14 408.24 249.61C408.24 252.53 408.24 275.89 408.24 278.81C428.78 292.03 453.48 299.74 480.06 299.74C506.63 299.74 531.33 292.03 551.87 278.81C551.87 275.89 551.87 252.53 551.87 249.61C551.87 238.14 543.45 228.27 531.75 226.02C530.22 225.73 522.56 224.26 508.78 221.61C506.34 218.19 504.99 216.29 504.72 215.91C503.96 214.84 502.52 214.44 501.29 214.95C500.82 215.14 497.08 216.69 496.61 216.89C486.04 221.26 474.07 221.25 463.52 216.86C463.06 216.67 459.41 215.15 458.95 214.96C457.72 214.44 456.29 214.83 455.52 215.88C455.24 216.26 453.84 218.17 451.33 221.61C437.55 224.26 429.89 225.73 428.36 226.02Z" id="a3vbGY2d2z"></path><path d="M508.78 221.61C506.34 218.19 504.99 216.29 504.72 215.91C503.96 214.84 502.52 214.44 501.29 214.95C500.82 215.15 497.08 216.7 496.61 216.89C491.1 219.17 485.2 220.25 479.33 220.14C479.33 228.1 479.33 291.77 479.33 299.73C479.57 299.73 479.81 299.74 480.06 299.74C506.63 299.74 531.33 292.03 551.87 278.81C551.87 275.89 551.87 252.53 551.87 249.61C551.87 238.14 543.45 228.27 531.75 226.02C528.69 225.43 521.03 223.96 508.78 221.61Z" id="a1zSCXOOy4"></path><path d="M525.42 154.71C525.42 129.19 505.11 108.51 480.06 108.51C455 108.51 434.69 129.19 434.69 154.71C434.69 156.64 434.8 158.62 435.03 160.63C430.63 161.73 428.53 168.23 430.35 175.2C432.18 182.18 437.25 186.98 441.68 185.91C442.08 185.81 442.46 185.66 442.82 185.47C451.02 201.29 464.64 214.12 480.06 214.12C495.47 214.12 509.09 201.29 517.29 185.47C517.65 185.66 518.03 185.81 518.43 185.91C522.86 186.98 527.93 182.18 529.76 175.2C531.58 168.23 529.48 161.73 525.08 160.63C525.31 158.62 525.42 156.64 525.42 154.71Z" id="h4XXL54V8D"></path><path d="M525.42 154.71C525.42 129.19 505.11 108.51 480.06 108.51C479.81 108.51 479.57 108.52 479.33 108.52C479.33 119.08 479.33 203.54 479.33 214.1C479.57 214.11 479.81 214.12 480.06 214.12C495.47 214.12 509.09 201.29 517.29 185.47C517.65 185.66 518.03 185.81 518.43 185.91C522.86 186.98 527.93 182.18 529.76 175.2C531.58 168.23 529.48 161.73 525.08 160.63C525.31 158.62 525.42 156.64 525.42 154.71Z" id="d6wkMhADW"></path><path d="M516.96 223.16L480.06 289.97L443.06 223.19C430.08 224.77 422.86 225.66 421.42 225.83C408.16 228.09 398.61 238.03 398.61 249.56C398.61 251.85 398.61 270.15 398.61 272.44C420.9 289.68 449.22 300 480.06 300C510.89 300 539.21 289.68 561.5 272.44C561.5 270.16 561.5 251.85 561.5 249.56C561.5 238.03 551.95 228.09 538.69 225.83C535.79 225.48 528.55 224.59 516.96 223.16Z" id="b65vAWkwb9"></path><path d="M516.96 223.16L480.06 289.97L479.33 288.65C479.33 295.45 479.33 299.23 479.33 299.99C479.57 299.99 479.81 300 480.06 300C510.89 300 539.21 289.68 561.5 272.44C561.5 270.16 561.5 251.85 561.5 249.56C561.5 238.03 551.95 228.09 538.69 225.83C535.79 225.48 528.55 224.59 516.96 223.16Z" id="b26NzqoNl3"></path><path d="M442.26 176.38C442.26 176.38 450.11 150.5 447.14 141.13C444.17 131.76 452.09 131.11 452.09 131.11C462.02 134.26 471.51 135.31 479.76 135.32C479.76 132.29 479.76 108.09 479.76 105.07C433.18 105.29 428.29 157.44 435.05 160.63C441.82 163.82 440.82 173.23 442.26 176.38Z" id="d1AHVhHDgG"></path><path d="M479.76 105.07C479.76 108.09 479.76 132.29 479.76 135.32C496.41 135.34 508.02 131.11 508.02 131.11C508.02 131.11 515.94 131.76 512.97 141.13C510 150.5 517.85 176.38 517.85 176.38C517.85 176.38 518.29 163.82 525.06 160.63C531.84 157.43 526.91 105.06 480.06 105.06C479.96 105.06 479.86 105.07 479.76 105.07Z" id="h2C5iDRu51"></path><path d="M476.57 299.95C477.73 299.98 478.89 300 480.06 300C484.36 300 488.61 299.79 492.81 299.4C494.9 296.32 505.37 280.95 524.21 253.28L514.5 237.85C525.8 232.8 532.08 229.99 533.33 229.43C533.33 229.43 518.41 207.09 501.73 205.44C496.7 224.35 487.52 246.76 476.57 299.95Z" id="bZraD7Hf1"></path><path d="M426.78 229.43C428.03 229.99 434.31 232.8 445.61 237.85L435.9 253.28C454.74 280.95 465.21 296.32 467.3 299.4C471.5 299.79 475.75 300 480.05 300C481.22 300 482.38 299.98 483.54 299.95C472.58 246.76 458.38 205.44 458.38 205.44C441.7 207.09 433.1 224.63 426.78 229.43Z" id="bPwHc4hMf"></path><path d="M395.25 151.71C395.25 158.93 408.82 165.34 429.73 169.33C429.97 164.89 431.92 161.4 435.03 160.63C434.8 158.62 434.69 156.64 434.69 154.71C434.69 153.59 434.74 152.48 434.82 151.37C444.71 145.31 461.28 141.33 480.06 141.33C498.83 141.33 515.4 145.31 525.29 151.37C525.37 152.48 525.42 153.59 525.42 154.71C525.42 156.64 525.31 158.62 525.08 160.63C528.19 161.4 530.14 164.89 530.38 169.33C551.29 165.34 564.86 158.93 564.86 151.71C564.86 139.62 526.89 129.82 480.06 129.82C433.22 129.82 395.25 139.62 395.25 151.71Z" id="g4gdbVKWm"></path><path d="M479.33 129.83C479.33 130.98 479.33 140.19 479.33 141.34C479.57 141.34 479.81 141.33 480.06 141.33C498.83 141.33 515.4 145.31 525.29 151.37C525.37 152.48 525.42 153.59 525.42 154.71C525.42 156.64 525.31 158.62 525.08 160.63C528.19 161.4 530.14 164.89 530.38 169.33C551.29 165.34 564.86 158.93 564.86 151.71C564.86 139.62 526.89 129.82 480.06 129.82C479.81 129.82 479.57 129.83 479.33 129.83Z" id="e18Kf1QzUc"></path><path d="M433.2 140.97C433.2 140.97 442.38 76.7 480.06 94.35C517.73 76.7 526.91 140.97 526.91 140.97" id="bZqU5t0Z8"></path><path d="M479.33 94.03C479.33 97.16 479.33 112.8 479.33 140.96C507.88 140.96 523.74 140.96 526.91 140.96C526.91 140.97 517.73 76.7 480.06 94.35C479.81 94.23 479.57 94.13 479.33 94.03Z" id="b1an5hhuWe"></path><path d="M183.07 350C109.58 350 50 405.96 50 475C50 544.03 109.58 600 183.07 600C256.57 600 316.14 544.03 316.14 475C316.14 405.96 256.57 350 183.07 350Z" id="b6S5MS38"></path><path d="M182.33 492.68C182.33 492.68 182.33 492.68 182.33 492.68C182.33 517.68 182.33 531.57 182.33 534.35C182.33 534.35 182.33 534.35 182.33 534.35C169.47 534.35 162.32 534.35 160.9 534.35C160.9 534.35 160.9 534.35 160.9 534.35C160.9 509.35 160.9 495.46 160.9 492.68C160.9 492.68 160.9 492.68 160.9 492.68C173.75 492.68 180.9 492.68 182.33 492.68Z" id="c9QH5QOTBM"></path><path d="M205.25 492.68C205.25 492.68 205.25 492.68 205.25 492.68C205.25 517.68 205.25 531.57 205.25 534.35C205.25 534.35 205.25 534.35 205.25 534.35C191.5 534.35 183.86 534.35 182.33 534.35C182.33 534.35 182.33 534.35 182.33 534.35C182.33 509.35 182.33 495.46 182.33 492.68C182.33 492.68 182.33 492.68 182.33 492.68C196.08 492.68 203.73 492.68 205.25 492.68Z" id="c5qirIztqi"></path><path d="M261.42 447.66L263.29 446.22L211.02 397.13L211.02 427.86L227.75 444.98L205.03 466.32L98.26 456.35L156.96 511.49L149.64 518.36C196.99 562.85 223.3 587.56 228.56 592.5C273.61 577.11 307.31 539.51 314.65 493.79C311.66 490.99 296.73 476.96 269.85 451.71L261.42 447.66Z" id="dsDbFPoJ"></path><path d="M205.25 492.68C205.25 492.68 205.25 492.68 205.25 492.68C205.25 517.68 205.25 531.57 205.25 534.35C205.25 534.35 205.25 534.35 205.25 534.35C178.64 534.35 163.85 534.35 160.9 534.35C160.9 534.35 160.9 534.35 160.9 534.35C160.9 509.35 160.9 495.46 160.9 492.68C160.9 492.68 160.9 492.68 160.9 492.68C187.51 492.68 202.29 492.68 205.25 492.68Z" id="d1ukyMCl7e"></path><path d="M130.18 526.02C118.21 528.27 109.59 538.14 109.59 549.61C109.59 552.53 109.59 575.89 109.59 578.81C130.61 592.03 155.88 599.74 183.07 599.74C210.26 599.74 235.54 592.03 256.55 578.81C256.55 575.89 256.55 552.53 256.55 549.61C256.55 538.14 247.94 528.27 235.97 526.02C234.4 525.73 226.57 524.25 212.47 521.61C209.97 518.19 208.59 516.29 208.31 515.91C207.53 514.84 206.06 514.44 204.8 514.95C204.32 515.14 200.49 516.69 200.01 516.89C189.2 521.26 176.95 521.25 166.15 516.86C165.68 516.67 161.95 515.15 161.48 514.96C160.22 514.44 158.76 514.83 157.97 515.88C157.68 516.26 156.25 518.17 153.68 521.61C139.58 524.25 131.74 525.73 130.18 526.02Z" id="e7WSy4G5KB"></path><path d="M212.47 521.61C209.97 518.19 208.59 516.29 208.31 515.91C207.53 514.84 206.06 514.44 204.8 514.95C204.32 515.14 200.49 516.69 200.01 516.89C194.37 519.17 188.34 520.25 182.33 520.14C182.33 528.1 182.33 591.77 182.33 599.72C182.58 599.73 182.82 599.74 183.07 599.74C210.26 599.74 235.54 592.03 256.55 578.81C256.55 575.89 256.55 552.53 256.55 549.61C256.55 538.14 247.94 528.27 235.97 526.02C232.84 525.43 225 523.96 212.47 521.61Z" id="a1l7H7oeMr"></path><path d="M229.49 454.71C229.49 429.19 208.71 408.5 183.07 408.5C157.44 408.5 136.65 429.19 136.65 454.71C136.65 456.64 136.77 458.62 137 460.63C132.5 461.72 130.36 468.23 132.22 475.2C134.09 482.18 139.27 486.98 143.8 485.91C144.22 485.81 144.6 485.66 144.98 485.47C153.36 501.29 167.3 514.12 183.07 514.12C198.85 514.12 212.78 501.29 221.17 485.47C221.54 485.66 221.93 485.81 222.34 485.91C226.87 486.98 232.06 482.18 233.93 475.2C235.79 468.23 233.65 461.72 229.14 460.63C229.37 458.62 229.49 456.64 229.49 454.71Z" id="a2bCf4Zal8"></path><path d="M229.49 454.71C229.49 429.19 208.71 408.5 183.07 408.5C182.82 408.5 182.58 408.52 182.33 408.52C182.33 419.08 182.33 503.54 182.33 514.1C182.58 514.11 182.82 514.12 183.07 514.12C198.85 514.12 212.78 501.29 221.17 485.47C221.54 485.66 221.93 485.81 222.34 485.91C226.87 486.98 232.06 482.18 233.93 475.2C235.79 468.23 233.65 461.72 229.14 460.63C229.37 458.62 229.49 456.64 229.49 454.71Z" id="cfEtEgYhd"></path><path d="M220.83 523.16L183.07 589.97L145.22 523.19C131.94 524.77 124.56 525.65 123.08 525.83C109.51 528.09 99.74 538.02 99.74 549.56C99.74 551.85 99.74 570.15 99.74 572.44C122.54 589.68 151.52 600 183.07 600C214.62 600 243.6 589.68 266.41 572.44C266.41 570.15 266.41 551.85 266.41 549.56C266.41 538.02 256.64 528.09 243.07 525.83C240.1 525.47 232.69 524.58 220.83 523.16Z" id="gQT3gaRxx"></path><path d="M220.83 523.16L183.07 589.97L182.33 588.65C182.33 595.45 182.33 599.23 182.33 599.99C182.58 599.99 182.82 600 183.07 600C214.62 600 243.6 589.68 266.41 572.44C266.41 570.15 266.41 551.85 266.41 549.56C266.41 538.02 256.64 528.09 243.07 525.83C240.1 525.47 232.69 524.58 220.83 523.16Z" id="hIie6ufe"></path><path d="M144.41 476.38C144.41 476.38 152.43 450.5 149.4 441.13C146.36 431.76 154.46 431.11 154.46 431.11C164.62 434.26 174.33 435.31 182.78 435.32C182.78 432.29 182.78 408.09 182.78 405.07C135.12 405.29 130.1 457.44 137.02 460.63C143.95 463.82 142.93 473.23 144.41 476.38Z" id="asgKYnV7k"></path><path d="M182.78 405.07C182.78 408.09 182.78 432.29 182.78 435.32C199.81 435.34 211.69 431.11 211.69 431.11C211.69 431.11 219.79 431.75 216.75 441.13C213.71 450.5 221.74 476.38 221.74 476.38C221.74 476.38 222.2 463.82 229.13 460.63C236.06 457.43 231.01 405.06 183.07 405.06C182.97 405.06 182.88 405.07 182.78 405.07Z" id="b4tYfiQsQ"></path><path d="M179.5 599.95C180.69 599.98 181.88 600 183.07 600C187.48 600 191.83 599.79 196.12 599.4C198.26 596.32 208.97 580.95 228.25 553.28L218.32 537.85C229.88 532.8 236.3 529.99 237.59 529.43C237.59 529.43 222.32 507.09 205.25 505.44C200.1 524.34 190.72 546.75 179.5 599.95Z" id="g1rDEHZJ99"></path><path d="M128.56 529.43C129.85 529.99 136.27 532.8 147.83 537.85L137.89 553.28C157.17 580.95 167.88 596.32 170.03 599.4C174.32 599.79 178.67 600 183.07 600C184.27 600 185.46 599.98 186.64 599.95C175.43 546.75 160.89 505.44 160.89 505.44C143.83 507.09 135.03 524.63 128.56 529.43Z" id="f24P4jrbaC"></path><path d="M96.3 451.71C96.3 458.93 110.18 465.34 131.58 469.32C131.83 464.89 133.82 461.4 137 460.63C136.77 458.62 136.65 456.64 136.65 454.71C136.65 453.59 136.71 452.48 136.79 451.37C146.91 445.31 163.86 441.33 183.07 441.33C202.29 441.33 219.24 445.31 229.36 451.37C229.44 452.48 229.49 453.59 229.49 454.71C229.49 456.64 229.37 458.62 229.14 460.63C232.33 461.4 234.32 464.89 234.56 469.32C255.96 465.34 269.85 458.93 269.85 451.71C269.85 439.62 231 429.82 183.07 429.82C135.15 429.82 96.3 439.62 96.3 451.71Z" id="doNnQ2Ew2"></path><path d="M182.33 429.83C182.33 430.98 182.33 440.18 182.33 441.34C182.58 441.33 182.82 441.33 183.07 441.33C202.29 441.33 219.24 445.31 229.36 451.37C229.44 452.48 229.49 453.59 229.49 454.71C229.49 456.64 229.37 458.62 229.14 460.63C232.33 461.4 234.32 464.89 234.56 469.32C255.96 465.34 269.85 458.93 269.85 451.71C269.85 439.62 231 429.82 183.07 429.82C182.82 429.82 182.58 429.82 182.33 429.83Z" id="dEURzxTz"></path><path d="M135.13 440.96C135.13 440.96 144.53 376.69 183.07 394.35C221.62 376.7 231.01 440.96 231.01 440.96" id="c3J16nFGg"></path><path d="M182.33 394.03C182.33 397.15 182.33 412.8 182.33 440.96C211.54 440.96 227.77 440.96 231.01 440.96C231.01 440.96 221.62 376.69 183.07 394.35C182.82 394.23 182.58 394.13 182.33 394.03Z" id="a3Yb1CtSys"></path></defs><g><g><g><use xlink:href="#e7mrhAaeGP" opacity="1" fill="#9f1bff" fill-opacity="1"></use><g><use xlink:href="#e7mrhAaeGP" opacity="1" fill-opacity="0" stroke="#000000" stroke-width="1" stroke-opacity="0"></use></g></g><g><use xlink:href="#egAFYGxX6" opacity="1" fill="#fcd088" fill-opacity="1"></use><g><use xlink:href="#egAFYGxX6" opacity="1" fill-opacity="0" stroke="#000000" stroke-width="1" stroke-opacity="0"></use></g></g><g><use xlink:href="#eziTgyZYj" opacity="1" fill="#ddab62" fill-opacity="1"></use><g><use xlink:href="#eziTgyZYj" opacity="1" fill-opacity="0" stroke="#000000" stroke-width="1" stroke-opacity="0"></use></g></g><g><use xlink:href="#d384YUnLlJ" opacity="1" fill="#3d1e63" fill-opacity="1"></use><g><use xlink:href="#d384YUnLlJ" opacity="1" fill-opacity="0" stroke="#000000" stroke-width="1" stroke-opacity="0"></use></g></g><g><use xlink:href="#c4UIGfHbWN" opacity="1" fill="#fcd088" fill-opacity="1"></use><g><use xlink:href="#c4UIGfHbWN" opacity="1" fill-opacity="0" stroke="#000000" stroke-width="1" stroke-opacity="0"></use></g></g><g><use xlink:href="#ah7jZBUAK" opacity="1" fill="#3a3a3a" fill-opacity="1"></use><g><use xlink:href="#ah7jZBUAK" opacity="1" fill-opacity="0" stroke="#000000" stroke-width="1" stroke-opacity="0"></use></g></g><g><use xlink:href="#aRrzXbZZX" opacity="1" fill="#282828" fill-opacity="1"></use><g><use xlink:href="#aRrzXbZZX" opacity="1" fill-opacity="0" stroke="#000000" stroke-width="1" stroke-opacity="0"></use></g></g><g><use xlink:href="#ah0r9AOCf" opacity="1" fill="#ffedb5" fill-opacity="1"></use><g><use xlink:href="#ah0r9AOCf" opacity="1" fill-opacity="0" stroke="#000000" stroke-width="1" stroke-opacity="0"></use></g></g><g><use xlink:href="#a4PLpgZvT" opacity="1" fill="#e8cf89" fill-opacity="1"></use><g><use xlink:href="#a4PLpgZvT" opacity="1" fill-opacity="0" stroke="#000000" stroke-width="1" stroke-opacity="0"></use></g></g><g><use xlink:href="#cQNxV8VxA" opacity="1" fill="#777777" fill-opacity="1"></use><g><use xlink:href="#cQNxV8VxA" opacity="1" fill-opacity="0" stroke="#000000" stroke-width="1" stroke-opacity="0"></use></g></g><g><use xlink:href="#bmkIwKcfz" opacity="1" fill="#666666" fill-opacity="1"></use><g><use xlink:href="#bmkIwKcfz" opacity="1" fill-opacity="0" stroke="#000000" stroke-width="1" stroke-opacity="0"></use></g></g><g><use xlink:href="#bpxZGTjSm" opacity="1" fill="#3a3a3a" fill-opacity="1"></use><g><use xlink:href="#bpxZGTjSm" opacity="1" fill-opacity="0" stroke="#000000" stroke-width="1" stroke-opacity="0"></use></g></g><g><use xlink:href="#cGHFGLQwE" opacity="1" fill="#333333" fill-opacity="1"></use><g><use xlink:href="#cGHFGLQwE" opacity="1" fill-opacity="0" stroke="#000000" stroke-width="1" stroke-opacity="0"></use></g></g><g><use xlink:href="#ez03q433r" opacity="1" fill="#383838" fill-opacity="1"></use><g><use xlink:href="#ez03q433r" opacity="1" fill-opacity="0" stroke="#000000" stroke-width="1" stroke-opacity="0"></use></g></g><g><use xlink:href="#gV6TjwNzO" opacity="1" fill="#4f4f4f" fill-opacity="1"></use><g><use xlink:href="#gV6TjwNzO" opacity="1" fill-opacity="0" stroke="#000000" stroke-width="1" stroke-opacity="0"></use></g></g><g><use xlink:href="#d2sfMMCEkH" opacity="1" fill="#4f4f4f" fill-opacity="1"></use><g><use xlink:href="#d2sfMMCEkH" opacity="1" fill-opacity="0" stroke="#000000" stroke-width="1" stroke-opacity="0"></use></g></g><g><use xlink:href="#aHwWMotIb" opacity="1" fill="#383838" fill-opacity="1"></use><g><use xlink:href="#aHwWMotIb" opacity="1" fill-opacity="0" stroke="#000000" stroke-width="1" stroke-opacity="0"></use></g></g><g><use xlink:href="#a3mrfQEfTw" opacity="1" fill="#777777" fill-opacity="1"></use><g><use xlink:href="#a3mrfQEfTw" opacity="1" fill-opacity="0" stroke="#000000" stroke-width="1" stroke-opacity="0"></use></g></g><g><use xlink:href="#j1cTNcPSgc" opacity="1" fill="#666666" fill-opacity="1"></use><g><use xlink:href="#j1cTNcPSgc" opacity="1" fill-opacity="0" stroke="#000000" stroke-width="1" stroke-opacity="0"></use></g></g><g><use xlink:href="#d3atlL0Fcb" opacity="1" fill="#ffc61b" fill-opacity="1"></use><g><use xlink:href="#d3atlL0Fcb" opacity="1" fill-opacity="0" stroke="#000000" stroke-width="1" stroke-opacity="0"></use></g></g><g><use xlink:href="#d3pCh9CEp1" opacity="1" fill="#fcd088" fill-opacity="1"></use><g><use xlink:href="#d3pCh9CEp1" opacity="1" fill-opacity="0" stroke="#000000" stroke-width="1" stroke-opacity="0"></use></g></g><g><use xlink:href="#aru8ICOUH" opacity="1" fill="#ddab62" fill-opacity="1"></use><g><use xlink:href="#aru8ICOUH" opacity="1" fill-opacity="0" stroke="#000000" stroke-width="1" stroke-opacity="0"></use></g></g><g><use xlink:href="#bfj47o8sB" opacity="1" fill="#d48b07" fill-opacity="1"></use><g><use xlink:href="#bfj47o8sB" opacity="1" fill-opacity="0" stroke="#000000" stroke-width="1" stroke-opacity="0"></use></g></g><g><use xlink:href="#c1I1Qx04eW" opacity="1" fill="#fcd088" fill-opacity="1"></use><g><use xlink:href="#c1I1Qx04eW" opacity="1" fill-opacity="0" stroke="#000000" stroke-width="1" stroke-opacity="0"></use></g></g><g><use xlink:href="#f2SqR6noKQ" opacity="1" fill="#3a3a3a" fill-opacity="1"></use><g><use xlink:href="#f2SqR6noKQ" opacity="1" fill-opacity="0" stroke="#000000" stroke-width="1" stroke-opacity="0"></use></g></g><g><use xlink:href="#a9ClsBtzon" opacity="1" fill="#282828" fill-opacity="1"></use><g><use xlink:href="#a9ClsBtzon" opacity="1" fill-opacity="0" stroke="#000000" stroke-width="1" stroke-opacity="0"></use></g></g><g><use xlink:href="#aN3geqpyB" opacity="1" fill="#ffedb5" fill-opacity="1"></use><g><use xlink:href="#aN3geqpyB" opacity="1" fill-opacity="0" stroke="#000000" stroke-width="1" stroke-opacity="0"></use></g></g><g><use xlink:href="#g8RUT06qj" opacity="1" fill="#e8cf89" fill-opacity="1"></use><g><use xlink:href="#g8RUT06qj" opacity="1" fill-opacity="0" stroke="#000000" stroke-width="1" stroke-opacity="0"></use></g></g><g><use xlink:href="#a9ozMRmPj" opacity="1" fill="#777777" fill-opacity="1"></use><g><use xlink:href="#a9ozMRmPj" opacity="1" fill-opacity="0" stroke="#000000" stroke-width="1" stroke-opacity="0"></use></g></g><g><use xlink:href="#a4TCW5nfWd" opacity="1" fill="#666666" fill-opacity="1"></use><g><use xlink:href="#a4TCW5nfWd" opacity="1" fill-opacity="0" stroke="#000000" stroke-width="1" stroke-opacity="0"></use></g></g><g><use xlink:href="#b3FyGXRubg" opacity="1" fill="#3a3a3a" fill-opacity="1"></use><g><use xlink:href="#b3FyGXRubg" opacity="1" fill-opacity="0" stroke="#000000" stroke-width="1" stroke-opacity="0"></use></g></g><g><use xlink:href="#eGtMaX42R" opacity="1" fill="#333333" fill-opacity="1"></use><g><use xlink:href="#eGtMaX42R" opacity="1" fill-opacity="0" stroke="#000000" stroke-width="1" stroke-opacity="0"></use></g></g><g><use xlink:href="#byhGPzxNs" opacity="1" fill="#383838" fill-opacity="1"></use><g><use xlink:href="#byhGPzxNs" opacity="1" fill-opacity="0" stroke="#000000" stroke-width="1" stroke-opacity="0"></use></g></g><g><use xlink:href="#asAfw2P2Z" opacity="1" fill="#4f4f4f" fill-opacity="1"></use><g><use xlink:href="#asAfw2P2Z" opacity="1" fill-opacity="0" stroke="#000000" stroke-width="1" stroke-opacity="0"></use></g></g><g><use xlink:href="#b2BbmXPaak" opacity="1" fill="#4f4f4f" fill-opacity="1"></use><g><use xlink:href="#b2BbmXPaak" opacity="1" fill-opacity="0" stroke="#000000" stroke-width="1" stroke-opacity="0"></use></g></g><g><use xlink:href="#b3CEiuu3v0" opacity="1" fill="#383838" fill-opacity="1"></use><g><use xlink:href="#b3CEiuu3v0" opacity="1" fill-opacity="0" stroke="#000000" stroke-width="1" stroke-opacity="0"></use></g></g><g><use xlink:href="#a1xgouHmqq" opacity="1" fill="#777777" fill-opacity="1"></use><g><use xlink:href="#a1xgouHmqq" opacity="1" fill-opacity="0" stroke="#000000" stroke-width="1" stroke-opacity="0"></use></g></g><g><use xlink:href="#byen03p1q" opacity="1" fill="#666666" fill-opacity="1"></use><g><use xlink:href="#byen03p1q" opacity="1" fill-opacity="0" stroke="#000000" stroke-width="1" stroke-opacity="0"></use></g></g><g><use xlink:href="#e45q437yg" opacity="1" fill="#ff1bce" fill-opacity="1"></use><g><use xlink:href="#e45q437yg" opacity="1" fill-opacity="0" stroke="#000000" stroke-width="1" stroke-opacity="0"></use></g></g><g><use xlink:href="#aSINCzIbY" opacity="1" fill="#fcd088" fill-opacity="1"></use><g><use xlink:href="#aSINCzIbY" opacity="1" fill-opacity="0" stroke="#000000" stroke-width="1" stroke-opacity="0"></use></g></g><g><use xlink:href="#bnz7PLMA8" opacity="1" fill="#ddab62" fill-opacity="1"></use><g><use xlink:href="#bnz7PLMA8" opacity="1" fill-opacity="0" stroke="#000000" stroke-width="1" stroke-opacity="0"></use></g></g><g><use xlink:href="#fBjFq4H4u" opacity="1" fill="#7b0667" fill-opacity="1"></use><g><use xlink:href="#fBjFq4H4u" opacity="1" fill-opacity="0" stroke="#000000" stroke-width="1" stroke-opacity="0"></use></g></g><g><use xlink:href="#b1zztV7lhG" opacity="1" fill="#fcd088" fill-opacity="1"></use><g><use xlink:href="#b1zztV7lhG" opacity="1" fill-opacity="0" stroke="#000000" stroke-width="1" stroke-opacity="0"></use></g></g><g><use xlink:href="#a3vbGY2d2z" opacity="1" fill="#3a3a3a" fill-opacity="1"></use><g><use xlink:href="#a3vbGY2d2z" opacity="1" fill-opacity="0" stroke="#000000" stroke-width="1" stroke-opacity="0"></use></g></g><g><use xlink:href="#a1zSCXOOy4" opacity="1" fill="#282828" fill-opacity="1"></use><g><use xlink:href="#a1zSCXOOy4" opacity="1" fill-opacity="0" stroke="#000000" stroke-width="1" stroke-opacity="0"></use></g></g><g><use xlink:href="#h4XXL54V8D" opacity="1" fill="#ffedb5" fill-opacity="1"></use><g><use xlink:href="#h4XXL54V8D" opacity="1" fill-opacity="0" stroke="#000000" stroke-width="1" stroke-opacity="0"></use></g></g><g><use xlink:href="#d6wkMhADW" opacity="1" fill="#e8cf89" fill-opacity="1"></use><g><use xlink:href="#d6wkMhADW" opacity="1" fill-opacity="0" stroke="#000000" stroke-width="1" stroke-opacity="0"></use></g></g><g><use xlink:href="#b65vAWkwb9" opacity="1" fill="#777777" fill-opacity="1"></use><g><use xlink:href="#b65vAWkwb9" opacity="1" fill-opacity="0" stroke="#000000" stroke-width="1" stroke-opacity="0"></use></g></g><g><use xlink:href="#b26NzqoNl3" opacity="1" fill="#666666" fill-opacity="1"></use><g><use xlink:href="#b26NzqoNl3" opacity="1" fill-opacity="0" stroke="#000000" stroke-width="1" stroke-opacity="0"></use></g></g><g><use xlink:href="#d1AHVhHDgG" opacity="1" fill="#3a3a3a" fill-opacity="1"></use><g><use xlink:href="#d1AHVhHDgG" opacity="1" fill-opacity="0" stroke="#000000" stroke-width="1" stroke-opacity="0"></use></g></g><g><use xlink:href="#h2C5iDRu51" opacity="1" fill="#333333" fill-opacity="1"></use><g><use xlink:href="#h2C5iDRu51" opacity="1" fill-opacity="0" stroke="#000000" stroke-width="1" stroke-opacity="0"></use></g></g><g><use xlink:href="#bZraD7Hf1" opacity="1" fill="#383838" fill-opacity="1"></use><g><use xlink:href="#bZraD7Hf1" opacity="1" fill-opacity="0" stroke="#000000" stroke-width="1" stroke-opacity="0"></use></g></g><g><use xlink:href="#bPwHc4hMf" opacity="1" fill="#4f4f4f" fill-opacity="1"></use><g><use xlink:href="#bPwHc4hMf" opacity="1" fill-opacity="0" stroke="#000000" stroke-width="1" stroke-opacity="0"></use></g></g><g><use xlink:href="#g4gdbVKWm" opacity="1" fill="#4f4f4f" fill-opacity="1"></use><g><use xlink:href="#g4gdbVKWm" opacity="1" fill-opacity="0" stroke="#000000" stroke-width="1" stroke-opacity="0"></use></g></g><g><use xlink:href="#e18Kf1QzUc" opacity="1" fill="#383838" fill-opacity="1"></use><g><use xlink:href="#e18Kf1QzUc" opacity="1" fill-opacity="0" stroke="#000000" stroke-width="1" stroke-opacity="0"></use></g></g><g><use xlink:href="#bZqU5t0Z8" opacity="1" fill="#777777" fill-opacity="1"></use><g><use xlink:href="#bZqU5t0Z8" opacity="1" fill-opacity="0" stroke="#000000" stroke-width="1" stroke-opacity="0"></use></g></g><g><use xlink:href="#b1an5hhuWe" opacity="1" fill="#666666" fill-opacity="1"></use><g><use xlink:href="#b1an5hhuWe" opacity="1" fill-opacity="0" stroke="#000000" stroke-width="1" stroke-opacity="0"></use></g></g><g><use xlink:href="#b6S5MS38" opacity="1" fill="#ff0808" fill-opacity="1"></use><g><use xlink:href="#b6S5MS38" opacity="1" fill-opacity="0" stroke="#000000" stroke-width="1" stroke-opacity="0"></use></g></g><g><use xlink:href="#c9QH5QOTBM" opacity="1" fill="#fcd088" fill-opacity="1"></use><g><use xlink:href="#c9QH5QOTBM" opacity="1" fill-opacity="0" stroke="#000000" stroke-width="1" stroke-opacity="0"></use></g></g><g><use xlink:href="#c5qirIztqi" opacity="1" fill="#ddab62" fill-opacity="1"></use><g><use xlink:href="#c5qirIztqi" opacity="1" fill-opacity="0" stroke="#000000" stroke-width="1" stroke-opacity="0"></use></g></g><g><use xlink:href="#dsDbFPoJ" opacity="1" fill="#680000" fill-opacity="1"></use><g><use xlink:href="#dsDbFPoJ" opacity="1" fill-opacity="0" stroke="#000000" stroke-width="1" stroke-opacity="0"></use></g></g><g><use xlink:href="#d1ukyMCl7e" opacity="1" fill="#fcd088" fill-opacity="1"></use><g><use xlink:href="#d1ukyMCl7e" opacity="1" fill-opacity="0" stroke="#000000" stroke-width="1" stroke-opacity="0"></use></g></g><g><use xlink:href="#e7WSy4G5KB" opacity="1" fill="#3a3a3a" fill-opacity="1"></use><g><use xlink:href="#e7WSy4G5KB" opacity="1" fill-opacity="0" stroke="#000000" stroke-width="1" stroke-opacity="0"></use></g></g><g><use xlink:href="#a1l7H7oeMr" opacity="1" fill="#282828" fill-opacity="1"></use><g><use xlink:href="#a1l7H7oeMr" opacity="1" fill-opacity="0" stroke="#000000" stroke-width="1" stroke-opacity="0"></use></g></g><g><use xlink:href="#a2bCf4Zal8" opacity="1" fill="#ffedb5" fill-opacity="1"></use><g><use xlink:href="#a2bCf4Zal8" opacity="1" fill-opacity="0" stroke="#000000" stroke-width="1" stroke-opacity="0"></use></g></g><g><use xlink:href="#cfEtEgYhd" opacity="1" fill="#e8cf89" fill-opacity="1"></use><g><use xlink:href="#cfEtEgYhd" opacity="1" fill-opacity="0" stroke="#000000" stroke-width="1" stroke-opacity="0"></use></g></g><g><use xlink:href="#gQT3gaRxx" opacity="1" fill="#777777" fill-opacity="1"></use><g><use xlink:href="#gQT3gaRxx" opacity="1" fill-opacity="0" stroke="#000000" stroke-width="1" stroke-opacity="0"></use></g></g><g><use xlink:href="#hIie6ufe" opacity="1" fill="#666666" fill-opacity="1"></use><g><use xlink:href="#hIie6ufe" opacity="1" fill-opacity="0" stroke="#000000" stroke-width="1" stroke-opacity="0"></use></g></g><g><use xlink:href="#asgKYnV7k" opacity="1" fill="#3a3a3a" fill-opacity="1"></use><g><use xlink:href="#asgKYnV7k" opacity="1" fill-opacity="0" stroke="#000000" stroke-width="1" stroke-opacity="0"></use></g></g><g><use xlink:href="#b4tYfiQsQ" opacity="1" fill="#333333" fill-opacity="1"></use><g><use xlink:href="#b4tYfiQsQ" opacity="1" fill-opacity="0" stroke="#000000" stroke-width="1" stroke-opacity="0"></use></g></g><g><use xlink:href="#g1rDEHZJ99" opacity="1" fill="#383838" fill-opacity="1"></use><g><use xlink:href="#g1rDEHZJ99" opacity="1" fill-opacity="0" stroke="#000000" stroke-width="1" stroke-opacity="0"></use></g></g><g><use xlink:href="#f24P4jrbaC" opacity="1" fill="#4f4f4f" fill-opacity="1"></use><g><use xlink:href="#f24P4jrbaC" opacity="1" fill-opacity="0" stroke="#000000" stroke-width="1" stroke-opacity="0"></use></g></g><g><use xlink:href="#doNnQ2Ew2" opacity="1" fill="#4f4f4f" fill-opacity="1"></use><g><use xlink:href="#doNnQ2Ew2" opacity="1" fill-opacity="0" stroke="#000000" stroke-width="1" stroke-opacity="0"></use></g></g><g><use xlink:href="#dEURzxTz" opacity="1" fill="#383838" fill-opacity="1"></use><g><use xlink:href="#dEURzxTz" opacity="1" fill-opacity="0" stroke="#000000" stroke-width="1" stroke-opacity="0"></use></g></g><g><use xlink:href="#c3J16nFGg" opacity="1" fill="#777777" fill-opacity="1"></use><g><use xlink:href="#c3J16nFGg" opacity="1" fill-opacity="0" stroke="#000000" stroke-width="1" stroke-opacity="0"></use></g></g><g><use xlink:href="#a3Yb1CtSys" opacity="1" fill="#666666" fill-opacity="1"></use><g><use xlink:href="#a3Yb1CtSys" opacity="1" fill-opacity="0" stroke="#000000" stroke-width="1" stroke-opacity="0"></use></g></g></g></g></svg>